<svg xmlns="http://www.w3.org/2000/svg" style="position:absolute;width:0;height:0;overflow:hidden">
  <symbol id="github" viewBox="0 0 24 24">
    <path fill="none" stroke="currentColor" stroke-width="1.7" stroke-linecap="round" stroke-linejoin="round" d="M9 19c-4 1.5-4-2-5-2m10 4v-3.3c0-.9.1-1.3-.5-2 2.7-.3 5.5-1.3 5.5-6a4.7 4.7 0 0 0-1.2-3.2 4.4 4.4 0 0 0-.1-3.2s-1-.3-3.2 1.2a11 11 0 0 0-5.8 0C6.3.9 5.3 1.2 5.3 1.2a4.4 4.4 0 0 0-.1 3.2A4.7 4.7 0 0 0 4 7.7c0 4.7 2.8 5.7 5.5 6-.4.4-.5.9-.5 1.6V21"/>
  </symbol>

  <symbol id="linkedin" viewBox="0 0 24 24">
    <path fill="none" stroke="currentColor" stroke-width="1.7" stroke-linecap="round" stroke-linejoin="round" d="M6.5 10.2V19m0-11.9a1.6 1.6 0 1 0 0-.1ZM10.4 19v-5.1c0-1.8 1-3 2.8-3s2.8 1.2 2.8 3V19m-5.6-4.8c0-2.1 1.2-3.3 3.2-3.3"/>
  </symbol>

  <symbol id="instagram" viewBox="0 0 24 24">
    <path fill="none" stroke="currentColor" stroke-width="1.7" stroke-linecap="round" stroke-linejoin="round" d="M7.2 3.8h9.6a3.4 3.4 0 0 1 3.4 3.4v9.6a3.4 3.4 0 0 1-3.4 3.4H7.2a3.4 3.4 0 0 1-3.4-3.4V7.2a3.4 3.4 0 0 1 3.4-3.4Z"/>
    <path fill="none" stroke="currentColor" stroke-width="1.7" stroke-linecap="round" stroke-linejoin="round" d="M12 16a4 4 0 1 0 0-8 4 4 0 0 0 0 8Z"/>
    <path fill="currentColor" d="M17.5 6.7a.9.9 0 1 1-1.8 0 .9.9 0 0 1 1.8 0Z"/>
  </symbol>

  <symbol id="youtube" viewBox="0 0 24 24">
    <path fill="none" stroke="currentColor" stroke-width="1.7" stroke-linecap="round" stroke-linejoin="round" d="M19.5 7.1a2.8 2.8 0 0 1 1 2v5.8a2.8 2.8 0 0 1-1 2c-1 .8-6.3.8-7.5.8s-6.5 0-7.5-.8a2.8 2.8 0 0 1-1-2V9.1a2.8 2.8 0 0 1 1-2c1-.8 6.3-.8 7.5-.8s6.5 0 7.5.8Z"/>
    <path fill="currentColor" d="M10.5 9.7v4.6c0 .3.3.5.6.3l4-2.3c.3-.2.3-.6 0-.8l-4-2.3c-.3-.2-.6 0-.6.5Z"/>
  </symbol>

  <symbol id="tiktok" viewBox="0 0 24 24">
    <path fill="none" stroke="currentColor" stroke-width="1.7" stroke-linecap="round" stroke-linejoin="round" d="M14 4c.4 2.6 2 4.3 4.6 4.7v3a7.8 7.8 0 0 1-4.6-1.7v6.1c0 2.6-2.1 4.7-4.7 4.7A4.7 4.7 0 0 1 4.6 16c0-2.6 2-4.7 4.7-4.7.4 0 .8 0 1.2.2v3a1.9 1.9 0 0 0-1.2-.4c-1 0-1.9.8-1.9 1.9S8.3 18 9.3 18s1.9-.8 1.9-1.9V4h2.8Z"/>
  </symbol>

  <symbol id="menu" viewBox="0 0 24 24">
    <path fill="none" stroke="currentColor" stroke-width="1.8" stroke-linecap="round" d="M5 7h14M5 12h14M5 17h14"/>
  </symbol>

  <symbol id="close" viewBox="0 0 24 24">
    <path fill="none" stroke="currentColor" stroke-width="1.8" stroke-linecap="round" d="M7 7l10 10M17 7L7 17"/>
  </symbol>

  <symbol id="arrow-right" viewBox="0 0 24 24">
    <path fill="none" stroke="currentColor" stroke-width="1.8" stroke-linecap="round" stroke-linejoin="round" d="M5 12h12"/>
    <path fill="none" stroke="currentColor" stroke-width="1.8" stroke-linecap="round" stroke-linejoin="round" d="m13 6 6 6-6 6"/>
  </symbol>

  <symbol id="download" viewBox="0 0 24 24">
    <path fill="none" stroke="currentColor" stroke-width="1.8" stroke-linecap="round" stroke-linejoin="round" d="M12 3v10"/>
    <path fill="none" stroke="currentColor" stroke-width="1.8" stroke-linecap="round" stroke-linejoin="round" d="m8 10 4 4 4-4"/>
    <path fill="none" stroke="currentColor" stroke-width="1.8" stroke-linecap="round" stroke-linejoin="round" d="M5 20h14"/>
  </symbol>

  <symbol id="external" viewBox="0 0 24 24">
    <path fill="none" stroke="currentColor" stroke-width="1.7" stroke-linecap="round" stroke-linejoin="round" d="M10 7H7.3A2.3 2.3 0 0 0 5 9.3v7.4A2.3 2.3 0 0 0 7.3 19h7.4A2.3 2.3 0 0 0 17 16.7V14"/>
    <path fill="none" stroke="currentColor" stroke-width="1.7" stroke-linecap="round" stroke-linejoin="round" d="M14 5h5v5"/>
    <path fill="none" stroke="currentColor" stroke-width="1.7" stroke-linecap="round" stroke-linejoin="round" d="M19 5l-8.5 8.5"/>
  </symbol>

  <symbol id="tech-orb" viewBox="0 0 24 24">
    <path fill="none" stroke="currentColor" stroke-width="1.6" stroke-linecap="round" stroke-linejoin="round" d="M12 21a9 9 0 1 0 0-18 9 9 0 0 0 0 18Z"/>
    <path fill="none" stroke="currentColor" stroke-width="1.4" stroke-linecap="round" stroke-linejoin="round" d="M3.8 9.7c3.8 2.2 12.6 2.2 16.4 0M3.8 14.3c3.8-2.2 12.6-2.2 16.4 0"/>
    <path fill="none" stroke="currentColor" stroke-width="1.4" stroke-linecap="round" stroke-linejoin="round" d="M12 3c2.8 2.9 2.8 15.1 0 18M12 3c-2.8 2.9-2.8 15.1 0 18"/>
    <path fill="currentColor" d="M12 12.7a.9.9 0 1 1 0-1.8.9.9 0 0 1 0 1.8Z"/>
  </symbol>
</svg>
